<svg xmlns="http://www.w3.org/2000/svg" xmlns:xlink="http://www.w3.org/1999/xlink" x="0px" y="0px" viewBox="0 0 356 55.6" style="enable-background:new 0 0 356 55.6;" xml:space="preserve">
	<title>Cliff Hurst</title>
	<style>path {fill: #222222}</style>
	<g>
		<path d="M32.6,17.9c-2.2-1.2-4.3-1.8-6.4-1.8c-2.4,0-4.7,0.6-6.7,1.8c-2,1.2-3.6,2.9-4.7,5.1c-1.2,2.1-1.7,4.5-1.7,7.2
			s0.6,5,1.7,7.2c1.2,2.1,2.7,3.8,4.7,5.1c2,1.2,4.2,1.8,6.7,1.8c2,0,4.1-0.5,6.2-1.5c2.2-1,4.1-2.4,5.8-4.2l7.4,8
			c-2.6,2.8-5.8,5-9.4,6.6c-3.6,1.6-7.2,2.5-10.8,2.5c-4.8,0-9.1-1.1-13-3.3c-3.9-2.2-6.9-5.2-9.1-9.1C1.1,39.4,0,35.1,0,30.3
			c0-4.7,1.1-9,3.4-12.7c2.3-3.8,5.4-6.8,9.3-8.9S21.1,5.4,26,5.4c3.6,0,7.2,0.7,10.7,2.3c3.5,1.5,6.5,3.5,8.9,6.1l-7.3,8.9
			C36.7,20.7,34.8,19.1,32.6,17.9z"/>
		<path d="M51.4,3.3h12.3v51.4H51.4V3.3z"/>
		<path d="M84.2,1.8C85.4,3.1,86,4.6,86,6.6c0,1.9-0.6,3.5-1.8,4.7c-1.2,1.2-2.8,1.9-4.7,1.9c-1.9,0-3.5-0.6-4.7-1.9
			C73.6,10,73,8.5,73,6.6c0-1.9,0.6-3.5,1.8-4.7C76.1,0.6,77.6,0,79.5,0C81.4,0,83,0.6,84.2,1.8z M73.5,17.2h12.3v37.5H73.5V17.2z"/>
		<path d="M110.8,13.6c-0.8,0.7-1.2,1.7-1.2,3V19h8.3v8.2h-8.3v27.5H97.4V27.2h-5.1V19h5.1v-3.5c0-4,1.3-7.1,4-9.4
			c2.7-2.3,6.1-3.4,10.2-3.4c2.7,0,5.4,0.5,8,1.5l-1.6,9.4c-1.8-0.6-3.2-1-4.2-1C112.6,12.6,111.6,13,110.8,13.6z"/>
		<path d="M138.5,13.6c-0.8,0.7-1.2,1.7-1.2,3V19h8.3v8.2h-8.3v27.5H125V27.2H120V19h5.1v-3.5c0-4,1.3-7.1,4-9.4
			c2.7-2.3,6.1-3.4,10.2-3.4c2.7,0,5.4,0.5,8,1.5l-1.6,9.4c-1.8-0.6-3.2-1-4.2-1C140.3,12.6,139.3,13,138.5,13.6z"/>
		<path d="M165.6,6.2h12.7V26h19.6V6.2h12.7v48.6h-12.7V36.1h-19.6v18.6h-12.7V6.2z"/>
		<path d="M256.6,17.2v37.5h-12.3v-6.1c-2.5,4.3-6.5,6.6-12,6.7c-4.1,0-7.3-1.3-9.7-3.9c-2.4-2.6-3.6-6.1-3.6-10.4V17.2h12.3v20.2
			c0,2.1,0.5,3.8,1.6,5c1.1,1.2,2.6,1.8,4.4,1.8c2.2,0,3.9-0.8,5.1-2.4c1.2-1.5,1.9-3.6,1.9-6.1V17.2H256.6z"/>
		<path d="M283.4,18.5c2.1-1.2,4.4-1.7,7-1.7v11.3c-0.4,0-1-0.1-1.9-0.1c-2.9,0-5.3,0.7-7.1,2c-1.8,1.4-2.8,3.2-3.1,5.6v19.1H266
			V17.2h12.3v6.2C279.6,21.3,281.3,19.6,283.4,18.5z"/>
		<path d="M308.9,25.3c-1.1,0-1.9,0.2-2.6,0.6c-0.6,0.4-1,1-1,1.8c0,0.8,0.5,1.5,1.5,2c1,0.5,2.6,1.1,4.9,1.7
			c2.7,0.8,4.9,1.6,6.7,2.3c1.8,0.8,3.3,1.9,4.6,3.5c1.3,1.6,1.9,3.6,1.9,6.1c0,3.8-1.5,6.8-4.4,8.9c-2.9,2.1-6.8,3.2-11.5,3.2
			c-3.2,0-6.2-0.5-9.1-1.4c-2.9-0.9-5.5-2.2-7.8-4l3.9-8c2.1,1.5,4.4,2.6,6.7,3.4c2.3,0.8,4.5,1.2,6.6,1.2c1.2,0,2.2-0.2,2.9-0.6
			s1.1-1,1.1-1.7c0-0.9-0.5-1.6-1.6-2.1c-1-0.5-2.7-1.1-4.9-1.7c-2.6-0.8-4.8-1.6-6.5-2.3c-1.7-0.8-3.2-1.9-4.5-3.4
			c-1.3-1.5-1.9-3.5-1.9-6c0-3.8,1.4-6.8,4.3-8.9c2.9-2.1,6.6-3.2,11.1-3.2c2.7,0,5.4,0.4,8.1,1.1c2.7,0.7,5.2,1.8,7.5,3.3l-4.2,8
			C316,26.6,312,25.3,308.9,25.3z"/>
		<path d="M356,52.8c-1.4,0.8-3,1.4-4.8,1.8c-1.8,0.4-3.6,0.7-5.5,0.7c-3.7,0-6.7-1.1-9-3.2c-2.3-2.1-3.4-5.1-3.4-8.8V27.2h-5.2V19
			h5.2V8.7h12.3V19h9.7v8.2h-9.7v14.1c0,2.6,1.1,3.9,3.3,3.9c1.3,0,2.9-0.4,4.8-1.2L356,52.8z"/>
	</g>
</svg>
