<svg xmlns="http://www.w3.org/2000/svg" style="display: none;">
  
    <symbol id="icon-arrow-down" viewBox="0 0 512 512">
      <path d="m431 345c5-5 7-12 5-18-1-7-6-12-13-14-6-1-13 1-18 6l-130 130 0-431c0-5-2-10-6-13-3-3-8-5-13-5-10 0-17 8-17 18l0 432-130-130c-8-7-19-7-26 0-4 3-6 8-6 13 0 5 2 9 6 13l162 162c4 4 8 6 13 6 5 0 9-2 13-6z"/>
    </symbol>
  
    <symbol id="icon-arrow-left" viewBox="0 0 512 512">
      <path d="m167 431c7 6 18 6 25-1 7-7 7-18 1-25l-130-130 431 0c10 0 18-8 18-18 0-10-8-18-18-18l-432 0 130-130c7-8 7-19 0-26-3-4-8-6-13-6-5 0-9 2-13 6l-162 162c-4 4-6 8-6 13 0 5 2 9 6 13z"/>
    </symbol>
  
    <symbol id="icon-arrow-right" viewBox="0 0 512 512">
      <path d="m345 81c-5-5-12-8-19-6-6 2-12 7-13 14-2 6 1 14 6 18l130 130-431 0c-5 0-10 2-13 6-3 3-5 8-5 13 0 10 8 18 18 18l432 0-130 130c-7 7-7 19 0 26 3 4 8 6 13 6 5 0 9-2 13-6l162-162c4-4 6-8 6-13 0-5-2-10-6-13z"/>
    </symbol>
  
    <symbol id="icon-arrow-up" viewBox="0 0 512 512">
      <path d="m81 167c-6 7-6 18 1 25 7 7 18 7 25 1l130-130 0 431c0 10 8 18 18 18 10 0 18-8 18-18l0-432 130 130c8 7 19 7 26 0 4-3 6-8 6-13 0-5-2-9-6-13l-162-162c-4-4-8-6-13-6-5 0-9 2-13 6z"/>
    </symbol>
  
    <!-- <symbol id="icon-menu" viewBox="0 0 512 512">
      <path d="m491 235l-470 0c-12 0-21 10-21 21 0 11 9 21 21 21l470 0c12 0 21-10 21-21 0-11-9-21-21-21z m0-157l-470 0c-12 0-21 10-21 21 0 11 9 21 21 21l470 0c12 0 21-10 21-21 0-11-9-21-21-21z m0 314l-470 0c-12 0-21 10-21 21 0 11 9 21 21 21l470 0c12 0 21-10 21-21 0-11-9-21-21-21z"/>
    </symbol> -->

    <symbol id="icon-menu" viewBox="0 0 512 512">
        <path d="m491.3 235.3h-470.6c-11.4 0-20.7 9.3-20.7 20.7s9.3 20.7 20.7 20.7h470.6c11.4 0 20.7-9.3 20.7-20.7s-9.3-20.7-20.7-20.7z"/>
        <path d="M491.3,78.4H20.7C9.3,78.4,0,87.7,0,99.1s9.3,20.7,20.7,20.7h470.6c11.4,0,20.7-9.3,20.7-20.7S502.7,78.4,491.3,78.4z"/>
        <path d="m491.3 392.2h-470.6c-11.4 0-20.7 9.3-20.7 20.7s9.3 20.7 20.7 20.7h470.6c11.4 0 20.7-9.3 20.7-20.7s-9.3-20.7-20.7-20.7z"/>
    </symbol>
  
    <symbol id="icon-linkedin" viewBox="0 0 512 512">
      <path d="m486 306l0 170l-98 0l0-159c0-40-15-67-50-67c-28 0-44 18-51 36c-3 7-3 15-3 24l0 166l-99 0c0 0 1-269 0-297l99 0l0 42c-1 0-1 1-1 1l1 0l0-1c13-20 36-49 89-49c65 0 113 43 113 134z m-404-270c-34 0-56 22-56 51c0 29 21 52 54 52l1 0c34 0 56-23 56-52c-1-29-22-51-55-51z m-51 440l99 0l0-297l-99 0z"/>
    </symbol>
  
</svg>
