<?xml version="1.0" encoding="utf-8"?>
<!-- Generator: Adobe Illustrator 20.0.0, SVG Export Plug-In . SVG Version: 6.00 Build 0)  -->
<svg version="1.1" id="Layer_1" xmlns="http://www.w3.org/2000/svg" xmlns:xlink="http://www.w3.org/1999/xlink" x="0px" y="0px"
	 viewBox="0 0 413.9 414" style="enable-background:new 0 0 413.9 414;" xml:space="preserve">
<style type="text/css">
	.st0{opacity:0.6;fill:url(#SVGID_1_);}
	.st1{opacity:0.6;fill:url(#SVGID_2_);}
</style>
<g>
	<linearGradient id="SVGID_1_" gradientUnits="userSpaceOnUse" x1="336.5888" y1="389.2648" x2="72.3184" y2="38.5661">
		<stop  offset="0.2398" style="stop-color:#FFFFFF"/>
		<stop  offset="1" style="stop-color:#000000"/>
	</linearGradient>
	<polygon class="st0" points="401.5,294.1 185.2,28.2 138.4,83.4 93.8,22.4 12.4,140.3 260.7,446.5 	"/>
	<path d="M91.8,20.5c7.9,7.2,11.8,17.1,11.8,29.6c0,10.4-3.6,21.1-10.8,32L54,140.4H12.4l24.4-58.8c-10.1-7.5-15.2-17.9-15.2-31.2
		c0-12,3.9-21.8,11.6-29.4c7.7-7.6,17.6-11.4,29.6-11.4C74.2,9.7,83.9,13.3,91.8,20.5z M178.9,20.5c7.9,7.2,11.8,17.1,11.8,29.6
		c0,10.4-3.6,21.1-10.8,32l-38.8,58.4H99.6L124,81.6c-10.1-7.5-15.2-17.9-15.2-31.2c0-12,3.9-21.8,11.6-29.4
		c7.7-7.6,17.6-11.4,29.6-11.4C161.4,9.7,171.1,13.3,178.9,20.5z"/>
</g>
</svg>
