<?xml version="1.0" encoding="utf-8"?>
<!-- Generator: Adobe Illustrator 20.0.0, SVG Export Plug-In . SVG Version: 6.00 Build 0)  -->
<svg version="1.1" id="Layer_1" xmlns="http://www.w3.org/2000/svg" xmlns:xlink="http://www.w3.org/1999/xlink" x="0px" y="0px"
	 viewBox="0 0 414 414" style="enable-background:new 0 0 414 414;" xml:space="preserve">
<style type="text/css">
	.st0{opacity:0.6;fill:url(#SVGID_1_);}
	.st1{opacity:0.6;fill:url(#SVGID_2_);}
</style>
<g>
	<linearGradient id="SVGID_1_" gradientUnits="userSpaceOnUse" x1="348.4276" y1="380.5916" x2="82.4716" y2="27.6559">
		<stop  offset="0.2398" style="stop-color:#000000;stop-opacity:0"/>
		<stop  offset="1" style="stop-color:#000000"/>
	</linearGradient>
	<polygon class="st0" points="413.3,285.5 190.8,11.7 148.2,72.8 103.6,11.7 24.3,131.7 272.5,437.8 	"/>
	<path d="M94.4,101.7c0,12-3.9,21.8-11.6,29.4c-7.7,7.6-17.6,11.4-29.6,11.4c-11.5,0-21.1-3.6-29-10.8c-7.9-7.2-11.8-17.1-11.8-29.6
		c0-10.4,3.6-21,10.8-32L62,11.7h41.6L79.2,70.5C89.4,78,94.4,88.3,94.4,101.7z M181.6,101.7c0,12-3.9,21.8-11.6,29.4
		c-7.7,7.6-17.6,11.4-29.6,11.4c-11.5,0-21.1-3.6-29-10.8c-7.9-7.2-11.8-17.1-11.8-29.6c0-10.4,3.6-21,10.8-32l38.8-58.4h41.6
		l-24.4,58.8C176.5,78,181.6,88.3,181.6,101.7z"/>
</g>
</svg>
